<?xml version="1.0" encoding="UTF-8"?>
<svg id="Layer_2" xmlns="http://www.w3.org/2000/svg" viewBox="0 0 670.03 565.53">
  <defs>
    <style>
      .cls-1 {
        fill: #1d1d1b;
      }
    </style>
  </defs>
  <g id="Layer_1-2" data-name="Layer_1">
    <path class="cls-1" d="M656.74,134.72L400.08,2.75c-16.77-8.62-36.58,4.14-35.66,22.97l2.17,44.48c.55,11.23-6.64,21.35-17.4,24.63-9.29,2.84-18.49,5.93-27.56,9.27-32.1,11.81-62.7,26.72-91.21,44.29-57.05,35.13-105.57,80.95-142.77,133.01-37.21,52.09-63.1,110.41-76.53,170.05C3.23,486.32-.38,521.59.03,556.31c.13,10.95,15.76,12.74,18.41,2.11,8.06-32.33,19.74-63.25,34.66-91.93,25.46-49.12,60.21-91.7,100.6-125.18,40.43-33.49,86.43-57.84,133.85-71.97,20.53-6.15,41.3-10.37,62.03-12.78,14.04-1.63,26.52,9.04,27.2,23.16l1.67,34.29c.92,18.83,21.88,29.61,37.73,19.4l242.62-156.32c15.85-10.21,14.7-33.75-2.07-42.37Z"/>
  </g>
</svg>